<svg width="132" height="28" viewBox="0 0 132 28" fill="none" xmlns="http://www.w3.org/2000/svg">
<path d="M0 3.84842C0.137213 3.93114 0.266141 4.02688 0.385 4.1343C2.585 6.42869 4.76483 8.72308 6.9245 11.0175C7.0235 11.1274 7.1005 11.2594 7.205 11.4023L7.9035 10.7976V14.7889L2.1505 9.29118C2.1505 10.1048 2.1505 10.9405 2.1505 11.8146C2.1505 11.9356 2.3155 12.0565 2.42 12.161C4.114 13.7828 5.797 15.4102 7.502 17.0155C7.6451 17.1383 7.7578 17.2925 7.83127 17.4661C7.90475 17.6397 7.937 17.828 7.9255 18.0161C7.9255 20.2592 7.9255 22.5023 7.9255 24.7453V25.4326C7.5625 25.0752 7.293 24.8168 7.0345 24.5529L0 17.3839V3.84842ZM2.1395 14.3931C2.1395 14.9758 2.1395 15.6741 2.1395 16.3723C2.15726 16.6225 2.26012 16.8592 2.431 17.043C3.377 18.0161 4.3505 18.9617 5.3185 19.9128C5.632 20.2207 5.9565 20.5176 6.358 20.8914C6.358 20.0613 6.358 19.3466 6.358 18.6318C6.35723 18.5167 6.31189 18.4064 6.2315 18.324C4.862 16.988 3.4925 15.6851 2.1395 14.3931Z" fill="#1B1B1B"/>
<path d="M17.0885 0L18.634 1.31946H3.0965L4.5265 0H17.0885Z" fill="#1B1B1B"/>
<path d="M132 10.9515L131.417 10.9845V8.43354C130.684 8.47686 129.95 8.47686 129.217 8.43354C128.892 8.3601 128.552 8.40366 128.256 8.55655C127.96 8.70943 127.728 8.96181 127.6 9.26919C127.336 9.7475 126.962 10.1653 126.671 10.6326C126.634 10.7097 126.582 10.7787 126.518 10.8353C126.454 10.8919 126.379 10.9351 126.298 10.9623C126.217 10.9895 126.131 11.0001 126.046 10.9935C125.96 10.9869 125.877 10.9633 125.801 10.924L127.6 8.31259L127.27 8.15315C126.816 7.96967 126.428 7.65283 126.158 7.24448C125.888 6.83614 125.749 6.35551 125.757 5.86609C125.697 4.68957 126.054 3.69448 127.176 3.1722C127.682 2.95643 128.223 2.83709 128.771 2.82034C129.872 2.77086 130.911 2.82034 131.984 2.82034L132 10.9515ZM131.384 3.4196C130.284 3.4196 129.228 3.34263 128.183 3.4196C127.673 3.46844 127.201 3.71141 126.865 4.09824C126.53 4.48506 126.355 4.98613 126.379 5.49774C126.335 6.72374 126.874 7.63087 127.968 7.76831C129.106 7.83719 130.247 7.83719 131.384 7.76831V3.4196Z" fill="#1B1B1B"/>
<path d="M13.8435 25.3776C13.8435 25.1247 13.816 24.9817 13.816 24.8278C13.816 22.5023 13.816 20.1712 13.816 17.8457C13.8356 17.5575 13.9587 17.2862 14.1625 17.0815C15.9115 15.3937 17.677 13.7444 19.4315 12.0456C19.526 11.9573 19.5864 11.8385 19.602 11.7102C19.602 10.88 19.602 10.0609 19.602 9.07677L13.8435 14.9539V10.7701L14.487 11.3199L21.7085 3.73846V4.35971C21.7085 8.54349 21.7085 12.7328 21.7085 16.922C21.7157 17.1644 21.6379 17.4017 21.4885 17.5928C19.052 20.1052 16.599 22.5957 14.146 25.0972L13.8435 25.3776ZM15.4 20.754L15.631 20.9189L19.481 16.8891C19.536 16.8286 19.6185 16.7571 19.6185 16.6911C19.6185 15.8665 19.6185 15.0418 19.6185 14.4371C18.3095 15.6741 16.9345 16.966 15.5595 18.2855C15.4674 18.3759 15.4125 18.4975 15.4055 18.6263C15.367 19.3246 15.4 20.0393 15.4 20.754Z" fill="#1B1B1B"/>
<path d="M11.2915 27.879V5.46476H13.156C13.156 5.62969 13.156 5.80562 13.156 5.98154C13.156 12.5788 13.156 19.1596 13.156 25.7239C13.1616 25.8708 13.1344 26.0171 13.0763 26.1521C13.0183 26.2871 12.9309 26.4076 12.8205 26.5046C12.331 26.9829 11.8855 27.4997 11.418 28L11.2915 27.879Z" fill="#1B1B1B"/>
<path d="M10.45 27.9615C9.8175 27.3293 9.251 26.7685 8.701 26.1857C8.60972 26.0724 8.5628 25.9298 8.569 25.7844C8.569 19.0698 8.569 12.3571 8.569 5.64618C8.57489 5.5867 8.58593 5.52783 8.602 5.47025H10.45V27.9615Z" fill="#1B1B1B"/>
<path d="M2.167 3.94188L2.101 4.8655L0.0385 2.34754H21.703L19.503 4.85451L19.437 3.94188H2.167Z" fill="#1B1B1B"/>
<path d="M67.6775 18.1096C67.841 18.0345 68.0275 18.0271 68.1964 18.0889C68.3654 18.1506 68.5031 18.2766 68.5795 18.4394C69.2395 19.4675 69.938 20.4736 70.598 21.4962C70.6556 21.6051 70.7446 21.6942 70.8534 21.752C70.9623 21.8099 71.086 21.8337 71.2085 21.8205C71.654 21.8205 72.105 21.8205 72.6055 21.8205V18.0931H73.1885V21.8095C73.766 21.8095 74.2885 21.8095 74.8385 21.8095C74.9815 21.8095 75.141 21.6226 75.2345 21.4907C75.922 20.4791 76.6095 19.4675 77.264 18.4394C77.3423 18.2785 77.4812 18.1552 77.6502 18.0965C77.8193 18.0378 78.0048 18.0484 78.166 18.1261L77.44 19.2256C76.89 20.0283 76.373 20.8749 75.79 21.6336C75.6831 21.7443 75.6234 21.8921 75.6234 22.0459C75.6234 22.1998 75.6831 22.3476 75.79 22.4583C76.593 23.5578 77.363 24.7069 78.144 25.8339C78.221 25.9438 78.287 26.0538 78.386 26.2022C78.2185 26.2796 78.028 26.2909 77.8526 26.2338C77.6771 26.1767 77.5298 26.0555 77.44 25.8944C76.758 24.8663 76.021 23.8657 75.3335 22.8376C75.2542 22.6744 75.1253 22.5403 74.9654 22.4544C74.8054 22.3686 74.6225 22.3353 74.4425 22.3593C74.052 22.3978 73.6505 22.3593 73.2105 22.3593V26.2077H72.633V22.3483C72.083 22.3483 71.533 22.3483 71.027 22.3483C70.884 22.3483 70.719 22.5297 70.6255 22.6672C69.8885 23.7008 69.1515 24.7398 68.4255 25.8009C68.3474 25.9751 68.2033 26.1111 68.0249 26.1792C67.8465 26.2472 67.6483 26.2417 67.474 26.1638C67.529 26.0648 67.5785 25.9548 67.6445 25.8559C68.4475 24.7014 69.2395 23.5358 70.059 22.3923C70.1518 22.291 70.2032 22.1586 70.2032 22.0212C70.2032 21.8838 70.1518 21.7515 70.059 21.6501C69.355 20.6495 68.6785 19.6324 67.991 18.6209C67.903 18.4779 67.804 18.3075 67.6775 18.1096Z" fill="#1B1B1B"/>
<path d="M64.735 10.4897C65.6755 10.3962 66.0715 10.1488 66.2255 9.23621C66.451 7.90575 66.561 6.55331 66.6655 5.20636C66.726 4.43118 66.6655 3.645 66.6655 2.83683H72.05V10.4457H73.315V12.8262H72.765V11.023C72.5615 11.023 72.3965 10.99 72.215 10.99C70.07 10.99 67.9305 10.99 65.7855 10.99C65.329 10.99 65.2025 11.1274 65.2355 11.5398C65.2685 11.9521 65.2355 12.3699 65.2355 12.8152H64.6855L64.735 10.4897ZM71.456 10.4347V3.35362C70.1415 3.35362 68.86 3.35362 67.573 3.35362C67.474 3.35362 67.3145 3.57903 67.3035 3.71098C67.2375 4.84351 67.232 5.98704 67.133 7.11958C67.034 8.25211 67.001 9.42863 66.2255 10.4182L71.456 10.4347Z" fill="#1B1B1B"/>
<path d="M43.9615 26.1857V18.0821H44.5115V25.0477L44.6105 25.0972C44.7205 24.9652 44.8305 24.8388 44.935 24.7014C46.5667 22.6012 48.2002 20.4992 49.8355 18.3954C50.05 18.1425 50.237 17.9446 50.6 18.1425V26.2022H50.05V19.2861L49.973 19.2421C49.863 19.3685 49.742 19.4895 49.643 19.6214C48.004 21.7216 46.3687 23.8235 44.737 25.9274C44.6644 26.0605 44.544 26.1612 44.4001 26.2092C44.2562 26.2571 44.0995 26.2487 43.9615 26.1857Z" fill="#1B1B1B"/>
<path d="M31.999 26.1912V18.0876H37.763V18.5879H32.615V21.5127C33.4565 21.5127 34.265 21.4852 35.0845 21.5127C35.653 21.5239 36.2189 21.594 36.773 21.7216C37.2039 21.8245 37.5873 22.0701 37.8609 22.4185C38.1345 22.7668 38.2822 23.1974 38.28 23.6403C38.3485 24.092 38.2694 24.5537 38.0544 24.9569C37.8393 25.36 37.4999 25.683 37.0865 25.8779C36.7589 26.0459 36.4025 26.1504 36.036 26.1857C34.6995 26.2132 33.363 26.1912 31.999 26.1912ZM32.6095 25.6415C33.7645 25.6415 34.8975 25.6415 36.025 25.6415C36.241 25.6203 36.4515 25.5607 36.6465 25.4655C36.9736 25.3376 37.2514 25.1087 37.4394 24.812C37.6273 24.5154 37.7156 24.1665 37.6915 23.8162C37.7025 23.4607 37.5942 23.1118 37.3839 22.8249C37.1736 22.538 36.8734 22.3296 36.531 22.2329C35.244 21.837 33.9295 22.0954 32.6095 22.0185V25.6415Z" fill="#1B1B1B"/>
<path d="M59.147 6.51482V2.83683L59.697 2.80385V10.957H59.147V7.14706H53.7075V10.9515H53.1245V2.83134H53.6745V6.51482H59.147Z" fill="#1B1B1B"/>
<path d="M101.58 2.83134H102.13V6.51482H107.58V2.84233L108.13 2.80385V10.957H107.58V7.14706H102.124V10.9515H101.541L101.58 2.83134Z" fill="#1B1B1B"/>
<path d="M89.9305 2.74887C91.2945 2.80385 92.62 2.74887 93.9235 2.9303C94.5655 2.99574 95.1559 3.31086 95.5675 3.80765C95.9791 4.30443 96.1788 4.94305 96.1235 5.58571C96.1561 6.24141 95.9339 6.88433 95.5034 7.38018C95.073 7.87602 94.4675 8.18645 93.8135 8.24661C93.2511 8.3091 92.6854 8.33847 92.1195 8.33458C91.6025 8.33458 91.0855 8.33458 90.4695 8.33458V10.9735H89.9195L89.9305 2.74887ZM90.519 3.4196V7.75731C91.322 7.75731 92.0865 7.75731 92.851 7.75731C93.1012 7.76 93.3513 7.74346 93.599 7.70783C94.8475 7.49892 95.5075 6.76222 95.513 5.5912C95.5402 5.33127 95.5149 5.06851 95.4386 4.81853C95.3623 4.56854 95.2366 4.33642 95.0689 4.13593C94.9011 3.93545 94.6948 3.77068 94.4622 3.65141C94.2295 3.53213 93.9753 3.46078 93.7145 3.44159C92.6503 3.3809 91.5837 3.3754 90.519 3.42509V3.4196Z" fill="#1B1B1B"/>
<path d="M79.3815 7.09759V10.4457H84.392C84.392 10.7151 84.546 10.9955 84.15 10.9955H78.7875V2.84783H84.2105L84.2435 3.29315C84.1278 3.32053 84.0101 3.33891 83.8915 3.34812C82.5495 3.34812 81.2075 3.34812 79.871 3.34812C79.4915 3.34812 79.321 3.42509 79.3485 3.84292C79.3815 4.72806 79.3485 5.61319 79.3485 6.55331H83.677V7.10308L79.3815 7.09759Z" fill="#1B1B1B"/>
<path d="M42.5645 3.37561V6.54781H46.882V7.09759H42.57V10.4457H47.553C47.553 10.7206 47.707 10.9955 47.3055 10.9955H41.9925V2.85333H47.377C47.498 3.21068 47.377 3.36462 46.9975 3.35912C45.7105 3.35912 44.418 3.35912 43.1475 3.35912C42.9495 3.35362 42.768 3.37012 42.5645 3.37561Z" fill="#1B1B1B"/>
<path d="M113.443 10.9185L115.093 7.35598C115.742 5.94306 116.38 4.53014 117.046 3.12272C117.09 3.04502 117.151 2.97809 117.224 2.92676C117.297 2.87542 117.381 2.84095 117.469 2.82584C117.558 2.83076 117.645 2.85737 117.722 2.90335C117.798 2.94933 117.863 3.01331 117.909 3.08973C119.097 5.62969 120.274 8.17698 121.44 10.7316C121.463 10.7958 121.479 10.8621 121.49 10.9295C121.416 10.9677 121.336 10.989 121.253 10.9918C121.171 10.9945 121.088 10.9787 121.013 10.9454C120.937 10.9122 120.87 10.8623 120.817 10.7996C120.763 10.7369 120.724 10.6629 120.703 10.5832C120.503 10.0524 120.266 9.5362 119.993 9.03829C119.94 8.94715 119.866 8.86892 119.779 8.80908C119.691 8.74925 119.592 8.70926 119.488 8.69193C118.151 8.66444 116.809 8.69193 115.473 8.69193C115.357 8.68163 115.242 8.71242 115.148 8.77883C115.053 8.84525 114.985 8.94301 114.955 9.05478C114.746 9.56607 114.488 10.0554 114.285 10.5667C114.136 10.913 113.933 11.0944 113.443 10.9185ZM117.475 3.48007L115.374 8.13116H119.592C118.883 6.59729 118.206 5.07991 117.475 3.48007Z" fill="#1B1B1B"/>
<path d="M90.1615 26.1857C90.0881 26.2218 90.0075 26.2411 89.9257 26.2421C89.8439 26.2431 89.7629 26.2259 89.6886 26.1916C89.6143 26.1574 89.5486 26.107 89.4963 26.0442C89.4439 25.9813 89.4062 25.9076 89.386 25.8284C89.1825 25.2786 88.9075 24.8003 88.6875 24.2725C88.6561 24.1623 88.5873 24.0665 88.493 24.0013C88.3987 23.9361 88.2847 23.9057 88.1705 23.9152C86.8285 23.9152 85.4865 23.9152 84.15 23.9152C84.0529 23.9294 83.9599 23.9642 83.8774 24.0173C83.7949 24.0704 83.7247 24.1406 83.6715 24.2231C83.402 24.7233 83.193 25.2511 82.9565 25.7679C82.72 26.2847 82.7365 26.2572 82.1315 26.1528L83.9685 22.1394C84.546 20.8804 85.1235 19.6159 85.723 18.368C85.764 18.2862 85.8237 18.2152 85.8973 18.1607C85.9709 18.1063 86.0563 18.0699 86.1465 18.0546C86.2367 18.0586 86.3246 18.0848 86.4023 18.1308C86.48 18.1769 86.5451 18.2413 86.592 18.3185C87.791 20.8804 88.968 23.4479 90.145 26.0153C90.158 26.0711 90.1636 26.1285 90.1615 26.1857ZM86.163 18.7308L84.051 23.4039H88.2915L86.163 18.7308Z" fill="#1B1B1B"/>
<path d="M57.706 23.5523V26.1967H57.123V18.0491C58.5805 18.1206 60.038 17.8512 61.4625 18.2635C62.0799 18.4227 62.6144 18.809 62.9591 19.3452C63.3037 19.8813 63.4332 20.5278 63.3215 21.1553C63.2598 21.7789 62.9748 22.3593 62.519 22.7896C62.0633 23.2199 61.4674 23.4712 60.841 23.4973C60.0105 23.5743 59.191 23.5358 58.333 23.5523H57.706ZM57.706 23.074C58.8555 23.0135 59.961 23.074 61.0445 22.8871C61.5317 22.8186 61.9742 22.5662 62.281 22.1817C62.5879 21.7973 62.7358 21.31 62.6945 20.8199C62.7376 20.3277 62.5906 19.8377 62.2839 19.4503C61.9771 19.0629 61.5337 18.8074 61.0445 18.7363C59.9445 18.5769 58.8445 18.6044 57.695 18.5494L57.706 23.074Z" fill="#1B1B1B"/>
<path d="M33.3135 3.34812H30.393V2.84233H36.8115C36.949 3.19969 36.8665 3.39211 36.454 3.35912C35.7665 3.35912 35.079 3.35912 34.397 3.35912C34.023 3.35912 33.9075 3.46358 33.9075 3.84292C33.9075 6.00353 33.9075 8.15865 33.9075 10.3193V10.9405H33.3025L33.3135 3.34812Z" fill="#1B1B1B"/>
</svg>
