<svg width="165" height="243" viewBox="0 0 165 243" fill="none" xmlns="http://www.w3.org/2000/svg">
<path d="M97.789 161.389V226.021C97.789 230.021 96.195 233.858 93.3575 236.686C90.5201 239.515 86.6717 241.104 82.6589 241.104C78.6461 241.104 74.7977 239.515 71.9603 236.686C69.1228 233.858 67.5288 230.021 67.5288 226.021V161.389C47.8086 157.635 30.2018 146.684 18.1499 130.677C6.09805 114.67 0.467508 94.7583 2.35892 74.8331C4.25033 54.9079 13.5277 36.4021 28.3776 22.9331C43.2275 9.46403 62.5824 2 82.6589 2C102.735 2 122.09 9.46403 136.94 22.9331C151.79 36.4021 161.067 54.9079 162.959 74.8331C164.85 94.7583 159.22 114.67 147.168 130.677C135.116 146.684 117.509 157.635 97.789 161.389V161.389Z" stroke="white" stroke-width="3" stroke-linecap="round" stroke-linejoin="round"/>
<path d="M67.6045 161.389H80.6769" stroke="white" stroke-width="3" stroke-linecap="round" stroke-linejoin="round"/>
<path d="M59.6611 59.1557C59.6594 55.0903 60.7392 51.0971 62.7905 47.5834C64.8418 44.0697 67.7912 41.1612 71.3379 39.1545C74.8846 37.1477 78.9016 36.1146 82.9795 36.1605C87.0573 36.2063 91.0501 37.3295 94.5504 39.4154C98.0508 41.5014 100.934 44.4755 102.905 48.0344C104.876 51.5933 105.865 55.6098 105.772 59.6742C105.678 63.7385 104.505 67.7054 102.371 71.1703C100.238 74.6351 97.2211 77.474 93.6283 79.3973C90.2851 81.2511 87.5056 83.9698 85.5829 87.2669C83.6603 90.564 82.6658 94.3171 82.7043 98.1306V107.437" stroke="white" stroke-width="3" stroke-miterlimit="10" stroke-linecap="round"/>
<path d="M84.2021 124.255C84.2021 124.553 84.1133 124.845 83.9471 125.093C83.7808 125.341 83.5445 125.534 83.268 125.648C82.9916 125.762 82.6874 125.792 82.3939 125.734C82.1004 125.676 81.8308 125.532 81.6192 125.321C81.4076 125.11 81.2635 124.841 81.2051 124.549C81.1467 124.256 81.1767 123.953 81.2912 123.677C81.4057 123.402 81.5996 123.166 81.8485 123C82.0973 122.835 82.3898 122.746 82.689 122.746C83.0903 122.746 83.4752 122.905 83.7589 123.188C84.0426 123.471 84.2021 123.855 84.2021 124.255Z" stroke="white" stroke-width="3" stroke-miterlimit="10" stroke-linecap="round"/>
</svg>
