<svg width="66" height="70" viewBox="0 0 66 70" fill="none" xmlns="http://www.w3.org/2000/svg">
<path d="M52.0118 14.9999C52.0118 15.7245 52.2981 16.4195 52.8077 16.9319C53.3174 17.4443 54.0086 17.7321 54.7293 17.7321C55.4501 17.7321 56.1413 17.4443 56.6509 16.9319C57.1606 16.4195 57.4469 15.7245 57.4469 14.9999C57.4469 13.4904 56.3338 12.7913 54.7293 12.2651C53.3018 11.7982 52.0118 11.0422 52.0118 9.53282C52.0118 8.80817 52.2981 8.11321 52.8077 7.6008C53.3174 7.0884 54.0086 6.80054 54.7293 6.80054C55.4501 6.80054 56.1413 7.0884 56.6509 7.6008C57.1606 8.11321 57.4469 8.80817 57.4469 9.53282" stroke="white" stroke-width="2" stroke-miterlimit="10" stroke-linecap="round"/>
<path d="M54.7293 5.27631V6.81785" stroke="white" stroke-width="2" stroke-miterlimit="10" stroke-linecap="round"/>
<path d="M54.7293 17.7322V19.2737" stroke="white" stroke-width="2" stroke-miterlimit="10" stroke-linecap="round"/>
<path d="M65 12.275C65 14.3168 64.3978 16.3127 63.2697 18.0104C62.1415 19.7081 60.5379 21.0313 58.6618 21.8128C56.7857 22.5942 54.7212 22.7988 52.7295 22.4007C50.7377 22.0025 48.9081 21.0195 47.4719 19.576C46.0358 18.1324 45.0576 16.2931 44.6612 14.2906C44.2647 12.2881 44.4677 10.2124 45.2445 8.32593C46.0213 6.43944 47.337 4.8269 49.0253 3.6922C50.7136 2.5575 52.6986 1.9516 54.7293 1.95111C56.078 1.95079 57.4135 2.21758 58.6596 2.73626C59.9056 3.25494 61.0379 4.01534 61.9916 4.97403C62.9454 5.93273 63.702 7.07093 64.2181 8.32364C64.7343 9.57636 65 10.919 65 12.275V12.275Z" stroke="white" stroke-width="2" stroke-miterlimit="10" stroke-linecap="round"/>
<path d="M4.36621 68.6524V57.669C4.36621 56.9103 4.66598 56.1826 5.19959 55.6461C5.73319 55.1096 6.4569 54.8082 7.21153 54.8082H23.4284" stroke="white" stroke-width="2" stroke-miterlimit="10" stroke-linecap="round"/>
<path d="M23.4235 54.8082V43.8223C23.4241 43.0638 23.7241 42.3365 24.2576 41.8002C24.791 41.2638 25.5144 40.9622 26.2688 40.9615H42.4856" stroke="white" stroke-width="2" stroke-miterlimit="10" stroke-linecap="round"/>
<path d="M42.4832 40.9615V29.9781C42.4828 29.6025 42.5561 29.2305 42.6988 28.8835C42.8416 28.5364 43.0509 28.221 43.3149 27.9554C43.579 27.6897 43.8925 27.4789 44.2375 27.3351C44.5826 27.1913 44.9525 27.1173 45.326 27.1173H61.5429" stroke="white" stroke-width="2" stroke-miterlimit="10" stroke-linecap="round"/>
<path d="M15.949 66.2537H33.3944C39.1305 66.2504 44.6306 63.9569 48.6854 59.8774C52.7401 55.7979 55.0175 50.2665 55.0168 44.4992V37.8859" stroke="white" stroke-width="2" stroke-miterlimit="10" stroke-linecap="round"/>
<path d="M50.3066 38.8419L55.0832 34.0394L59.5281 38.5109" stroke="white" stroke-width="2" stroke-miterlimit="10" stroke-linecap="round"/>
<path d="M17.3151 15.4667L20.5094 18.1076C20.9919 18.5056 21.3806 19.0064 21.6475 19.5737C21.9143 20.141 22.0526 20.7608 22.0524 21.3883V28.3055C22.0527 28.8063 21.9549 29.3022 21.7645 29.765C21.5741 30.2278 21.2949 30.6483 20.9428 31.0025C20.5907 31.3567 20.1727 31.6377 19.7125 31.8294C19.2524 32.0212 18.7592 32.1198 18.2611 32.1198V32.1198" stroke="white" stroke-width="2" stroke-miterlimit="10" stroke-linecap="round"/>
<path d="M5.73974 15.4667L2.54551 18.1076C2.0625 18.5054 1.67332 19.006 1.40606 19.5733C1.13879 20.1407 1.0001 20.7606 1 21.3883V28.3055C1.0026 29.3167 1.40446 30.2855 2.11724 30.9989C2.83002 31.7123 3.79539 32.1119 4.80113 32.1099V32.1099" stroke="white" stroke-width="2" stroke-miterlimit="10" stroke-linecap="round"/>
<path d="M18.0817 22.4185L18.0964 24.6814V47.2314C18.0964 48.112 17.7485 48.9565 17.1292 49.5792C16.5099 50.2018 15.6699 50.5516 14.7941 50.5516H13.7572" stroke="white" stroke-width="2" stroke-miterlimit="10" stroke-linecap="round"/>
<path d="M4.90435 22.4185L4.88715 24.6814V47.2314C4.88715 48.112 5.23507 48.9565 5.85438 49.5792C6.47369 50.2018 7.31365 50.5516 8.18948 50.5516V50.5516C9.06532 50.5516 9.90528 50.2018 10.5246 49.5792C11.1439 48.9565 11.4918 48.112 11.4918 47.2314V34.0764" stroke="white" stroke-width="2" stroke-miterlimit="10" stroke-linecap="round"/>
<path d="M11.4918 14.3501C15.1585 14.3501 18.1309 11.3616 18.1309 7.67507C18.1309 3.98853 15.1585 1 11.4918 1C7.82514 1 4.85272 3.98853 4.85272 7.67507C4.85272 11.3616 7.82514 14.3501 11.4918 14.3501Z" stroke="white" stroke-width="2" stroke-miterlimit="10" stroke-linecap="round"/>
<path d="M11.4918 3.98175C10.9177 3.98205 10.3518 4.11921 9.84064 4.38196C10.4483 4.68857 10.9592 5.15904 11.3162 5.7408C11.6732 6.32256 11.8623 6.99268 11.8623 7.67626C11.8623 8.35985 11.6732 9.02997 11.3162 9.61172C10.9592 10.1935 10.4483 10.664 9.84064 10.9706C10.3518 11.2333 10.9177 11.3705 11.4918 11.3708C12.4171 11.2985 13.2813 10.878 13.9117 10.1931C14.542 9.5082 14.8922 8.60941 14.8922 7.67626C14.8922 6.74312 14.542 5.84433 13.9117 5.15944C13.2813 4.47454 12.4171 4.05398 11.4918 3.98175Z" fill="white" fill-opacity="0.35"/>
</svg>
