<svg width="67" height="80" viewBox="0 0 67 80" fill="none" xmlns="http://www.w3.org/2000/svg">
<path d="M28.3942 46.004C28.3942 47.4705 28.9742 48.8769 30.0065 49.9139C31.0389 50.9508 32.4391 51.5334 33.8991 51.5334C35.3591 51.5334 36.7593 50.9508 37.7917 49.9139C38.8241 48.8769 39.4041 47.4705 39.4041 46.004C39.4041 42.9506 37.1477 41.5401 33.8991 40.4746C31.0093 39.5267 28.3942 37.9987 28.3942 34.9453C28.3942 33.4788 28.9742 32.0724 30.0065 31.0354C31.0389 29.9985 32.4391 29.4159 33.8991 29.4159C35.3591 29.4159 36.7593 29.9985 37.7917 31.0354C38.8241 32.0724 39.4041 33.4788 39.4041 34.9453" stroke="white" stroke-width="2" stroke-linecap="round" stroke-linejoin="round"/>
<path d="M33.899 26.3344V29.4543" stroke="white" stroke-width="2" stroke-linecap="round" stroke-linejoin="round"/>
<path d="M33.899 51.5334V54.6533" stroke="white" stroke-width="2" stroke-linecap="round" stroke-linejoin="round"/>
<path d="M33.8991 61.4832C45.4506 61.4832 54.8149 52.0774 54.8149 40.4747C54.8149 28.872 45.4506 19.4661 33.8991 19.4661C22.3476 19.4661 12.9833 28.872 12.9833 40.4747C12.9833 52.0774 22.3476 61.4832 33.8991 61.4832Z" stroke="white" stroke-width="2" stroke-linecap="round" stroke-linejoin="round"/>
<path d="M33.899 22.9897C33.0862 22.9906 32.2744 23.0487 31.4696 23.1634C35.6237 23.7517 39.4265 25.8272 42.1782 29.008C44.9298 32.1888 46.445 36.2609 46.445 40.4747C46.445 44.6885 44.9298 48.7605 42.1782 51.9413C39.4265 55.1221 35.6237 57.1977 31.4696 57.7859C33.836 58.1235 36.2463 57.968 38.5503 57.3291C40.8543 56.6902 43.0026 55.5815 44.8613 54.0722C46.7201 52.5629 48.2495 50.6853 49.3543 48.5563C50.459 46.4274 51.1154 44.0928 51.2826 41.6979C51.4499 39.303 51.1243 36.8991 50.3261 34.6362C49.528 32.3732 48.2745 30.2995 46.6436 28.5444C45.0128 26.7893 43.0396 25.3903 40.8469 24.4347C38.6543 23.479 36.2892 22.9871 33.899 22.9897Z" fill="white" fill-opacity="0.4"/>
<path d="M4.95224 27.7576C-0.318685 36.8285 -0.316141 48.7483 4.95224 57.8166C10.2206 66.8849 20.564 72.7387 31.0169 72.5829" stroke="white" stroke-width="2" stroke-miterlimit="10" stroke-linecap="round"/>
<path d="M31.3628 66.7418L37.2926 72.7005L31.5892 78.4291" stroke="white" stroke-width="2" stroke-miterlimit="10" stroke-linecap="round"/>
<path d="M62.0496 51.6689C67.318 42.6006 67.3154 30.6782 62.0496 21.6125C56.7838 12.5468 46.4302 6.68779 35.9723 6.84621" stroke="white" stroke-width="2" stroke-miterlimit="10" stroke-linecap="round"/>
<path d="M35.6391 12.6848L29.7068 6.72868L35.4102 1" stroke="white" stroke-width="2" stroke-miterlimit="10" stroke-linecap="round"/>
</svg>
