<svg width="288" height="219" viewBox="0 0 288 219" fill="none" xmlns="http://www.w3.org/2000/svg">
<path d="M125.264 167.133C125.264 169.584 125.749 172.011 126.69 174.275C127.632 176.54 129.012 178.597 130.752 180.33C132.492 182.063 134.557 183.438 136.83 184.376C139.103 185.314 141.54 185.797 144 185.797C146.461 185.797 148.897 185.314 151.17 184.376C153.443 183.438 155.509 182.063 157.249 180.33C158.988 178.597 160.368 176.54 161.31 174.275C162.252 172.011 162.736 169.584 162.736 167.133C162.736 156.82 155.054 152.064 144 148.469C134.168 145.268 125.264 140.107 125.264 129.794C125.264 127.343 125.749 124.916 126.69 122.652C127.632 120.388 129.012 118.33 130.752 116.597C132.492 114.864 134.557 113.489 136.83 112.551C139.103 111.613 141.54 111.13 144 111.13C146.461 111.13 148.897 111.613 151.17 112.551C153.443 113.489 155.509 114.864 157.249 116.597C158.988 118.33 160.368 120.388 161.31 122.652C162.252 124.916 162.736 127.343 162.736 129.794" stroke="white" stroke-width="3" stroke-linecap="round" stroke-linejoin="round"/>
<path d="M144 100.728V111.266" stroke="white" stroke-width="3" stroke-linecap="round" stroke-linejoin="round"/>
<path d="M144 185.797V196.334" stroke="white" stroke-width="3" stroke-linecap="round" stroke-linejoin="round"/>
<path d="M144 217.286C182.123 217.286 213.027 186.501 213.027 148.526C213.027 110.55 182.123 79.7654 144 79.7654C105.878 79.7654 74.973 110.55 74.973 148.526C74.973 186.501 105.878 217.286 144 217.286Z" stroke="white" stroke-width="3" stroke-linecap="round" stroke-linejoin="round"/>
<path d="M241.188 63.3896L262.888 57.1571C269.032 55.3989 275.481 53.4491 279.859 48.8283C285.403 42.9564 286.354 34.1768 285.901 26.1073C285.449 18.0377 283.933 9.87797 285.652 2C269.189 13.4685 251.108 22.4397 232.001 28.6205C224.16 31.1564 216.161 33.2188 208.649 36.6676C201.136 40.1163 194.122 45.1091 189.913 52.1756C187.323 56.836 185.606 61.9266 184.844 67.1989C184.278 70.3434 183.882 73.5216 183.633 76.6998" stroke="white" stroke-width="3" stroke-linecap="round" stroke-linejoin="round"/>
<path d="M275.865 52.3333C277.657 55.3748 278.346 58.9364 277.819 62.4234C277.292 65.9103 275.58 69.1117 272.969 71.4928C269.575 74.4118 265.049 75.6516 260.772 76.8237L233.879 84.0593" stroke="white" stroke-width="3" stroke-linecap="round" stroke-linejoin="round"/>
<path d="M265.242 75.4487C266.656 80.2386 266.713 85.716 264.009 89.9311C261.746 93.4475 257.854 95.6339 253.826 96.8736C249.798 98.1134 245.623 98.5417 241.505 99.3418C232.325 101.14 223.623 104.83 215.958 110.173" stroke="white" stroke-width="3" stroke-linecap="round" stroke-linejoin="round"/>
<path d="M46.8238 63.3895L25.1573 57.1345C19.0251 55.3763 12.5648 53.4266 8.18624 48.8057C2.58578 42.9339 1.64671 34.0867 2.09928 26.0847C2.55184 18.0828 4.07924 9.87797 2.34819 2C18.8115 13.4684 36.8922 22.4397 55.9994 28.6205C63.8401 31.1564 71.8391 33.2188 79.363 36.6676C86.8868 40.1163 93.8902 45.1091 98.0991 52.1756C100.704 56.8342 102.44 61.9241 103.224 67.1989C103.707 69.9263 104.084 72.6726 104.356 75.4375" stroke="white" stroke-width="3" stroke-linecap="round" stroke-linejoin="round"/>
<path d="M12.146 52.3333C10.3547 55.3748 9.6651 58.9364 10.1922 62.4234C10.7194 65.9103 12.4314 69.1117 15.0424 71.4928C18.4366 74.4118 22.9623 75.6516 27.2277 76.8237L54.1212 84.0705" stroke="white" stroke-width="3" stroke-linecap="round" stroke-linejoin="round"/>
<path d="M22.7587 75.4487C21.3558 80.295 21.2992 85.716 24.0259 89.9311C26.2887 93.4475 30.1694 95.6339 34.2085 96.8736C38.2476 98.1134 42.4225 98.5417 46.5408 99.3418C55.7195 101.145 64.4201 104.834 72.088 110.173" stroke="white" stroke-width="3" stroke-linecap="round" stroke-linejoin="round"/>
<path d="M14.9747 26.7946C14.624 33.1736 15.5178 37.8508 17.509 39.947C19.5003 42.0433 24.6143 43.5874 28.6534 44.7482L36.6751 47.0023C39.2953 43.9414 42.1926 41.1269 45.3303 38.5946C34.9307 34.866 24.8351 30.3445 15.1331 25.0702C15.0878 25.645 15.0539 26.1972 14.9747 26.7946Z" fill="white" fill-opacity="0.38"/>
<path d="M274.179 26.7946C274.541 33.1736 273.636 37.8508 271.645 39.947C269.654 42.0433 264.54 43.5874 260.501 44.7482L252.479 47.0023C249.881 43.9162 247.002 41.0753 243.88 38.5157C254.273 34.8104 264.365 30.3153 274.066 25.0702C274.066 25.645 274.145 26.1972 274.179 26.7946Z" fill="white" fill-opacity="0.38"/>
</svg>
