<svg width="90" height="74" viewBox="0 0 90 74" fill="none" xmlns="http://www.w3.org/2000/svg">
<path d="M28.2293 65.3082C28.2279 63.8569 27.7959 62.4385 26.9878 61.2325C26.1796 60.0264 25.0316 59.0867 23.6889 58.5322C22.3462 57.9778 20.8691 57.8334 19.4443 58.1173C18.0195 58.4012 16.7109 59.1008 15.684 60.1275C14.6571 61.1542 13.958 62.4619 13.675 63.8854C13.392 65.3089 13.5379 66.7843 14.0942 68.125C14.6505 69.4657 15.5923 70.6115 16.8004 71.4177C18.0086 72.2239 19.4289 72.6541 20.8818 72.6541C21.8472 72.6541 22.8032 72.4641 23.6951 72.0948C24.587 71.7256 25.3972 71.1844 26.0796 70.5022C26.762 69.8199 27.303 69.0101 27.6719 68.1188C28.0407 67.2276 28.2301 66.2725 28.2293 65.3082V65.3082Z" stroke="white" stroke-width="2" stroke-miterlimit="10" stroke-linecap="round"/>
<path d="M74.1053 65.3082C74.104 63.8567 73.6719 62.4382 72.8636 61.2321C72.0553 60.026 70.9071 59.0863 69.5642 58.5319C68.2213 57.9775 66.744 57.8333 65.3191 58.1175C63.8942 58.4018 62.5856 59.1016 61.5588 60.1286C60.5321 61.1557 59.8332 62.4637 59.5506 63.8875C59.268 65.3112 59.4144 66.7866 59.9712 68.1273C60.5281 69.4679 61.4703 70.6136 62.6789 71.4193C63.8875 72.2251 65.3081 72.6548 66.7612 72.6541C67.7263 72.6537 68.6819 72.4633 69.5734 72.0939C70.4649 71.7244 71.2748 71.1832 71.9568 70.501C72.6388 69.8188 73.1796 69.0091 73.5482 68.1181C73.9169 67.2271 74.1062 66.2722 74.1053 65.3082V65.3082Z" stroke="white" stroke-width="2" stroke-miterlimit="10" stroke-linecap="round"/>
<path d="M28.2293 65.3082H59.4137" stroke="white" stroke-width="2" stroke-miterlimit="10" stroke-linecap="round"/>
<path d="M78.5564 52.658H87.9247" stroke="white" stroke-width="2" stroke-miterlimit="10" stroke-linecap="round"/>
<path d="M74.1053 65.3081H88.6471V61.3176C88.6471 51.105 85.9072 42.7647 83.4636 35.6881C82.2018 32.2662 80.6138 30.3673 77.4345 30.3673H66.7611V50.706H1V60.842C1.00265 62.028 1.47638 63.1645 2.31718 64.0018C3.15797 64.8392 4.29709 65.309 5.4844 65.3081H13.5343" stroke="white" stroke-width="2" stroke-miterlimit="10" stroke-linecap="round"/>
<path d="M1 46.037V25.9444H25.779V46.037" stroke="white" stroke-width="2" stroke-miterlimit="10" stroke-linecap="round"/>
<path d="M9.19641 30.374V38.0691V42.8811L13.3878 39.6388L17.5826 42.8811V38.0691V30.374H9.19641Z" fill="white" fill-opacity="0.38"/>
<path d="M25.779 25.9444H50.5613V46.037" stroke="white" stroke-width="2" stroke-miterlimit="10" stroke-linecap="round"/>
<path d="M33.9788 30.374V38.0691V42.8811L38.1702 39.6388L42.3616 42.8811V38.0691V30.374H33.9788Z" fill="white" fill-opacity="0.38"/>
<path d="M21.5876 5.383V13.0782V17.8901L25.779 14.6478L29.9704 17.8901V13.0782V5.383H21.5876Z" fill="white" fill-opacity="0.38"/>
<path d="M13.3879 25.7516V1H38.1702V25.7516" stroke="white" stroke-width="2" stroke-miterlimit="10" stroke-linecap="round"/>
</svg>
